<mxfile host="app.diagrams.net" modified="2023-10-24T18:24:42.540Z" agent="Mozilla/5.0 (Macintosh; Intel Mac OS X 10_15_7) AppleWebKit/537.36 (KHTML, like Gecko) Chrome/118.0.0.0 Safari/537.36" etag="v56h4txPCk0Qq_af3R3P" version="22.0.6" type="github">
  <diagram name="Page-1" id="87OqTgSzrGaeoH1Q6QDX">
    <mxGraphModel dx="1242" dy="781" grid="1" gridSize="10" guides="1" tooltips="1" connect="1" arrows="1" fold="1" page="1" pageScale="1" pageWidth="850" pageHeight="1100" math="0" shadow="0">
      <root>
        <mxCell id="0" />
        <mxCell id="1" parent="0" />
        <mxCell id="7lepllP-qU8IIOeeoHa0-3" style="edgeStyle=orthogonalEdgeStyle;rounded=0;orthogonalLoop=1;jettySize=auto;html=1;exitX=1;exitY=0.25;exitDx=0;exitDy=0;entryX=0;entryY=0.25;entryDx=0;entryDy=0;" edge="1" parent="1" source="7lepllP-qU8IIOeeoHa0-1" target="7lepllP-qU8IIOeeoHa0-2">
          <mxGeometry relative="1" as="geometry" />
        </mxCell>
        <mxCell id="7lepllP-qU8IIOeeoHa0-1" value="WebView" style="rounded=0;whiteSpace=wrap;html=1;" vertex="1" parent="1">
          <mxGeometry x="180" y="280" width="120" height="220" as="geometry" />
        </mxCell>
        <mxCell id="7lepllP-qU8IIOeeoHa0-2" value="JS" style="rounded=0;whiteSpace=wrap;html=1;" vertex="1" parent="1">
          <mxGeometry x="470" y="280" width="120" height="220" as="geometry" />
        </mxCell>
        <mxCell id="7lepllP-qU8IIOeeoHa0-4" value="window." style="text;html=1;strokeColor=none;fillColor=none;align=center;verticalAlign=middle;whiteSpace=wrap;rounded=0;" vertex="1" parent="1">
          <mxGeometry x="330" y="280" width="60" height="30" as="geometry" />
        </mxCell>
      </root>
    </mxGraphModel>
  </diagram>
</mxfile>
